<svg xmlns="http://www.w3.org/2000/svg" viewBox="0 0 130.94 130.95">
  <defs>
    <linearGradient id="debezium-a" x1="19.74" y1="19.73" x2="114.03" y2="114.02" gradientUnits="userSpaceOnUse">
      <stop offset="0" stop-color="#91d443"/>
      <stop offset="1" stop-color="#48bfe0"/>
    </linearGradient>
    <linearGradient id="debezium-b" x1="43.19" y1="-3.72" x2="137.48" y2="90.57" href="#debezium-a"/>
    <linearGradient id="debezium-c" x1="66.56" y1="-27.09" x2="160.85" y2="67.2" href="#debezium-a"/>
    <linearGradient id="debezium-d" x1="-3.72" y1="43.18" x2="90.57" y2="137.47" href="#debezium-a"/>
    <linearGradient id="debezium-e" x1="-27.09" y1="66.55" x2="67.2" y2="160.84" href="#debezium-a"/>
  </defs>
  <path fill="url(#debezium-a)" d="M93.79,114.29a16.65,16.65,0,0,0,16.63,16.63h20.53V110.39a16.65,16.65,0,0,0-16.63-16.63h-3.91A26.39,26.39,0,0,1,84,67.4V63.51A16.65,16.65,0,0,0,67.41,46.89h-3.9A26.39,26.39,0,0,1,37.16,20.52h0V16.62A16.65,16.65,0,0,0,20.53,0H0V20.52A16.65,16.65,0,0,0,16.63,37.15h3.91A26.39,26.39,0,0,1,46.9,63.51V67.4A16.65,16.65,0,0,0,63.53,84h3.9a26.39,26.39,0,0,1,26.36,26.36h0Z"/>
  <path fill="url(#debezium-b)" d="M130.94,63.51a16.65,16.65,0,0,0-16.63-16.63h-3.91A26.39,26.39,0,0,1,84,20.52V16.62A16.65,16.65,0,0,0,67.41,0H46.9V20.75A16.64,16.64,0,0,0,63.52,37.15h3.91A26.39,26.39,0,0,1,93.79,63.51h0V67.4A16.65,16.65,0,0,0,110.36,84h20.58Z"/>
  <path fill="url(#debezium-c)" d="M130.94,16.49A16.63,16.63,0,0,0,115,0H93.47V20.7a16.64,16.64,0,0,0,16.62,16.44h20.85Z"/>
  <path fill="url(#debezium-d)" d="M0,67.44A16.65,16.65,0,0,0,16.64,84.06h3.91a26.39,26.39,0,0,1,26.36,26.36v3.89a16.65,16.65,0,0,0,16.63,16.63H84V110.19A16.64,16.64,0,0,0,67.43,93.8H63.53A26.39,26.39,0,0,1,37.16,67.44h0V63.54A16.65,16.65,0,0,0,20.59,46.91H0Z"/>
  <path fill="url(#debezium-e)" d="M0,114.45a16.63,16.63,0,0,0,16,16.5H37.48V110.24A16.64,16.64,0,0,0,20.86,93.8H0Z"/>
</svg>
