<svg width="32" height="32" viewBox="0 0 32 32" fill="none" xmlns="http://www.w3.org/2000/svg">
  <circle cx="16" cy="16" r="15" fill="#F8FAFC"/>
  <circle cx="16" cy="16" r="15" stroke="#CBD5E1"/>
  <path fill-rule="evenodd" clip-rule="evenodd" d="M16 6.4C10.7 6.4 6.4 10.7 6.4 16c0 4.25 2.75 7.84 6.56 9.1.48.09.66-.2.66-.46 0-.23-.01-.98-.01-1.78-2.67.58-3.23-1.13-3.23-1.13-.44-1.1-1.07-1.4-1.07-1.4-.87-.6.07-.58.07-.58.96.07 1.47.99 1.47.99.86 1.46 2.25 1.04 2.8.8.09-.62.34-1.04.61-1.28-2.13-.24-4.36-1.06-4.36-4.73 0-1.04.37-1.9.99-2.57-.1-.24-.43-1.21.09-2.53 0 0 .8-.26 2.64.98.77-.21 1.59-.32 2.4-.32.82 0 1.64.11 2.4.32 1.84-1.24 2.64-.98 2.64-.98.52 1.32.19 2.29.09 2.53.62.67.99 1.52.99 2.57 0 3.68-2.24 4.49-4.37 4.73.35.3.65.88.65 1.78 0 1.28-.01 2.31-.01 2.62 0 .25.17.55.66.46A9.6 9.6 0 0 0 25.6 16c0-5.3-4.3-9.6-9.6-9.6Z" fill="#24292F"/>
</svg>
